<svg xmlns="http://www.w3.org/2000/svg" enable-background="new 0 0 24 24" viewBox="0 0 24 24" id="superuser"><path fill="#25A8E8" d="M11.904,0.02h-0.552c-0.223,0-0.371,0.086-0.371,0.281v1.392c0,0.195,0.104,0.279,0.328,0.279h0.447c2.14,0,3.627,1.706,3.627,3.412V9.81c0,1.373,0.982,2.517,2.5,3.217c0.104,0.057,0.134,0.139,0.134,0.196c0,0.055-0.016,0.11-0.134,0.14c-1.667,0.614-2.5,2.294-2.5,3.493v3.917c0,1.734-1.502,1.259-3.644,1.259h-0.445c-0.224,0-0.343,0.085-0.343,0.279v1.398c0,0.197,0.133,0.281,0.357,0.281h0.55c3.579,0,6.461,0.333,6.461-2.714v-4.081c0-1.428,1.001-2.295,2.468-2.716l0.055,0.011c0.669-0.194,0.936-0.314,0.906-0.57v-1.17c0-0.45-0.311-0.481-0.863-0.646c-1.503-0.523-2.498-1.335-2.498-2.744V5.64C18.388,2.592,15.474,0.02,11.904,0.02L11.904,0.02z"></path><path fill="#2092CA" d="M21.748,13.208h-3.732c0,0.005,0.001,0.01,0.001,0.014c0,0.055-0.016,0.11-0.134,0.14c-1.667,0.614-2.5,2.294-2.5,3.493v3.917c0,1.12-0.627,1.319-1.649,1.319c-0.559,0-1.237-0.06-1.995-0.06h-0.445c-0.224,0-0.343,0.085-0.343,0.279v1.398c0,0.197,0.133,0.281,0.357,0.281h0.55C12.5,23.99,13.121,24,13.706,24c2.673,0,4.613-0.224,4.613-2.725v-4.081c0-1.428,1.001-2.295,2.468-2.716l0.055,0.011c0.669-0.194,0.936-0.314,0.906-0.57V13.208L21.748,13.208z"></path><path d="M2.583,23.969h5.541v-0.003c0.222,0,0.334-0.089,0.306-0.255v-1.483c0-0.179-0.136-0.255-0.36-0.255H5.574c-0.25,0-0.364-0.074-0.364-0.27V2.293c0-0.196,0.114-0.308,0.417-0.308h2.45c0.223,0,0.344-0.056,0.344-0.251V0.279C8.421,0.084,8.288,0,8.064,0H2.577C2.354,0,2.25,0.115,2.25,0.279v23.438C2.25,23.913,2.36,23.969,2.583,23.969L2.583,23.969z"></path><path fill="#212121" d="M8.064,0H2.577C2.354,0,2.25,0.115,2.25,0.279v12.929h2.96V2.293c0-0.196,0.114-0.308,0.417-0.308h2.45c0.223,0,0.344-0.056,0.344-0.251V0.279C8.421,0.084,8.288,0,8.064,0L8.064,0z"></path><path d="M13.595,10.346V9.003c0-0.309-0.281-0.585-0.637-0.585h-1.473c-0.332,0-0.635,0.25-0.635,0.585v1.343c0,0.308,0.277,0.589,0.635,0.589h1.473l-0.003-0.002C13.287,10.934,13.595,10.681,13.595,10.346L13.595,10.346z"></path><path fill="#212121" d="M12.958,8.418h-1.473c-0.332,0-0.635,0.25-0.635,0.585v0.674h2.745V9.003C13.595,8.694,13.314,8.418,12.958,8.418L12.958,8.418z"></path></svg>